<svg xmlns="http://www.w3.org/2000/svg" viewBox="0 0 1027.16 209.95"><defs><style>.cls-1{fill:#036;}.cls-2,.cls-3{fill:#f40;}.cls-2{fill-rule:evenodd;}.cls-4{fill:#fff;}</style></defs><g id="Layer_2" data-name="Layer 2"><g id="Layer_1-2" data-name="Layer 1"><path class="cls-1" d="M334.75,153.33l19.37,18.8-13,11.6L319.7,163.25a44.49,44.49,0,0,1-9.13,2.6,57.48,57.48,0,0,1-9.92.84q-21,0-34.06-14.05t-13.09-35.4v-21q0-21.28,13.09-35.37t34-14.08q21.38,0,34.82,14.08t13.45,35.37v21a53.83,53.83,0,0,1-3.69,20.08,46.61,46.61,0,0,1-10.4,16Zm-5.28-57.21q0-14.57-7.81-23.93t-21.09-9.36q-12.81,0-20.26,9.36t-7.44,23.93v21.12q0,14.71,7.44,24.12t20.34,9.41q13.37,0,21.09-9.37t7.73-24.16V96.12ZM424.05,165l-1.6-12.65A29.73,29.73,0,0,1,412.12,163a27.62,27.62,0,0,1-14.41,3.72q-13.93,0-21.77-8.88t-7.85-27.61V78.43h19.37v51.93q0,11.37,3.69,15.92t11.12,4.57a25,25,0,0,0,11.81-2.52,18.39,18.39,0,0,0,7.48-7.33V78.43H441V165Zm37.53,0V78.43H481V165Zm94.24,0V110.76q0-9.76-4-13.88t-12.29-4.13a20.44,20.44,0,0,0-10.16,2.52A21.06,21.06,0,0,0,522,102.2V165H502.51V78.43h17.77l1.12,12.49a31,31,0,0,1,10.69-10.37,28.52,28.52,0,0,1,14.53-3.72q13.53,0,21.09,8.2t7.56,25.57V165Zm122.87-82.5H660A18.75,18.75,0,0,0,654,68q-6.08-5.56-17.37-5.56-10.65,0-16.37,4.63a14.71,14.71,0,0,0-5.72,12q0,6.63,6.2,11t20.53,8.31q18.82,5,28.58,13.92t9.77,22.64a27.33,27.33,0,0,1-11.65,23.17q-11.64,8.59-30.62,8.6-18.24,0-32-9.72t-13.36-26.53l.16-.48h18.73q0,10.65,7.36,15.89t19.13,5.24q10.82,0,16.81-4.34a13.77,13.77,0,0,0,6-11.76,14.92,14.92,0,0,0-5.41-11.87q-5.4-4.62-19.09-8.28-19.53-5.11-30.06-13.56A27,27,0,0,1,595,79.15q0-14.07,11.64-23.2t30.06-9.12q19.21,0,30.86,10.36T678.85,82l-.16.48Zm42.36,58.17c0,3.58.77,6.12,2.32,7.65a8.42,8.42,0,0,0,6.17,2.28,17.92,17.92,0,0,0,3.12-.28,19.59,19.59,0,0,0,2.88-.77l2.08,14.25a22.65,22.65,0,0,1-5.92,2.12,32.8,32.8,0,0,1-7.13.76q-10.73,0-16.81-6.28t-6.08-19.73V92.83H688.47V78.43h13.21v-21h19.37v21h15.53v14.4H721.05v47.85ZM796.52,96l-8.33-.32a17.42,17.42,0,0,0-9.48,2.4,15.77,15.77,0,0,0-5.89,6.8V165H753.37V78.43h17.77L772.42,91a27.85,27.85,0,0,1,8.45-10.41,19.7,19.7,0,0,1,11.89-3.76,18.82,18.82,0,0,1,3.28.28,26.15,26.15,0,0,1,2.8.68L796.52,96Zm30.4,31.36-.16.4q.48,10.29,6,16.83t15.41,6.54a41.69,41.69,0,0,0,13.45-1.93,44.21,44.21,0,0,0,10.81-5.52l6.24,12.75a40.16,40.16,0,0,1-13,7.32,54.17,54.17,0,0,1-18.73,3q-18.4,0-29.34-12t-10.92-30.93v-3.2q0-18.88,10.84-31.33a34.34,34.34,0,0,1,27.18-12.36q17.54,0,26.86,10.6T881,115.88v11.44Zm34.74-16.24c0-5.49-1.4-10-4.2-13.44s-7-5.2-12.69-5.2a14.59,14.59,0,0,0-11.85,5.72,28.2,28.2,0,0,0-5.76,14.52l.16.4h34.34v-2Zm53.53,16.24-.16.4q.48,10.29,6.05,16.83t15.41,6.54a41.69,41.69,0,0,0,13.45-1.93,44.15,44.15,0,0,0,10.8-5.52L967,156.39a40,40,0,0,1-13,7.32,54.21,54.21,0,0,1-18.73,3q-18.42,0-29.34-12T895,123.72v-3.2q0-18.88,10.85-31.33A34.33,34.33,0,0,1,933,76.83q17.54,0,26.86,10.6t9.33,28.45v11.44Zm34.75-16.24c0-5.49-1.4-10-4.21-13.44s-7-5.2-12.69-5.2a14.56,14.56,0,0,0-11.84,5.72,28.12,28.12,0,0,0-5.77,14.52l.16.4h34.35v-2Zm60.65,29.6c0,3.58.78,6.12,2.32,7.65a8.44,8.44,0,0,0,6.17,2.28,17.75,17.75,0,0,0,3.12-.28,19.59,19.59,0,0,0,2.88-.77l2.08,14.25a22.52,22.52,0,0,1-5.92,2.12,32.7,32.7,0,0,1-7.12.76q-10.74,0-16.81-6.28t-6.09-19.73V92.83H978V78.43h13.21v-21h19.37v21h15.53v14.4h-15.53v47.85Z"/><path class="cls-2" d="M470.83,20.78a23,23,0,1,1-23,23,23,23,0,0,1,23-23Z"/><circle class="cls-3" cx="104.98" cy="104.98" r="104.98"/><rect class="cls-4" x="103.66" y="16.12" width="2.62" height="175.23"/><path class="cls-4" d="M84.49,104.62a45.37,45.37,0,0,1-3.32,18.16A29.56,29.56,0,0,1,71.87,135l12.67,9.88-8.31,7.5L60.52,139.94a31.71,31.71,0,0,1-6.63.66A29.4,29.4,0,0,1,38,136.21,28.75,28.75,0,0,1,27.1,123.72,43.79,43.79,0,0,1,23.23,105v-4.15a44.92,44.92,0,0,1,3.82-19.06,28.75,28.75,0,0,1,10.8-12.64,29.27,29.27,0,0,1,15.93-4.38,29.81,29.81,0,0,1,16.09,4.33A28.34,28.34,0,0,1,80.64,81.58a44.84,44.84,0,0,1,3.85,18.93Zm-12.87-3.85c0-8.32-1.55-14.61-4.66-18.91s-7.5-6.43-13.18-6.43a15.07,15.07,0,0,0-12.94,6.51q-4.7,6.51-4.79,18.37v4.31q0,12,4.68,18.7a15.13,15.13,0,0,0,13.16,6.74q8.55,0,13.15-6.49t4.58-18.95Z"/><path class="cls-4" d="M167,123.92a8.9,8.9,0,0,0-3.43-7.5q-3.42-2.62-12.33-5.32a59.27,59.27,0,0,1-14.19-6q-10.09-6.33-10.09-16.52a18,18,0,0,1,7.27-14.7q7.27-5.78,18.88-5.77A31.88,31.88,0,0,1,166.79,71a22.56,22.56,0,0,1,9.48,8.09,20.69,20.69,0,0,1,3.45,11.63H167q0-5.73-3.63-9T153,78.46q-6.28,0-9.75,2.68a8.88,8.88,0,0,0-3.48,7.47,8.06,8.06,0,0,0,3.75,6.74q3.75,2.7,12.37,5.24a57,57,0,0,1,13.83,5.82,22,22,0,0,1,7.65,7.5,19.47,19.47,0,0,1,2.44,9.91,17.56,17.56,0,0,1-7.07,14.67q-7.08,5.44-19.18,5.45a36,36,0,0,1-14.72-3,24.72,24.72,0,0,1-10.45-8.18,20.4,20.4,0,0,1-3.72-12.16h12.82q0,6.28,4.16,9.73t11.91,3.44q6.69,0,10.06-2.71A8.76,8.76,0,0,0,167,123.92Z"/></g></g></svg>